<?xml version="1.0" standalone="no"?><!DOCTYPE svg PUBLIC "-//W3C//DTD SVG 1.1//EN" "http://www.w3.org/Graphics/SVG/1.1/DTD/svg11.dtd"><svg t="1555553925179" class="icon" style="" viewBox="0 0 1024 1024" version="1.1" xmlns="http://www.w3.org/2000/svg" p-id="2315" xmlns:xlink="http://www.w3.org/1999/xlink" width="200" height="200"><defs><style type="text/css"></style></defs><path d="M512.760828 510.614443m-507.624343 0a507.624343 507.624343 0 1 0 1015.248686 0 507.624343 507.624343 0 1 0-1015.248686 0Z" fill="#F7F7F7" p-id="2316"></path><path d="M17.942139 624.39279c51.655474 225.571479 253.583462 393.845996 494.819712 393.845996 241.235227 0 443.163215-168.274518 494.818689-393.845996H17.942139z" fill="#E8EBEF" p-id="2317"></path><path d="M796.819372 215.357859c8.010441 0 14.503319-6.493901 14.503319-14.503318h-29.006637c0 8.010441 6.492878 14.503319 14.503318 14.503318z" fill="#F27961" p-id="2318"></path><path d="M710.431863 252.825193c28.834722 0 52.212152-23.376407 52.212152-52.212153H658.219711c0 28.834722 23.37743 52.212152 52.212152 52.212153z" fill="#CCC2B8" p-id="2319"></path><path d="M768.245593 208.017684m-27.556612 0a27.556613 27.556613 0 1 0 55.113225 0 27.556613 27.556613 0 1 0-55.113225 0Z" fill="#CCC2B8" p-id="2320"></path><path d="M781.469779 204.939579m-10.15222 0a10.152221 10.152221 0 1 0 20.304441 0 10.152221 10.152221 0 1 0-20.304441 0Z" fill="#FFFFFF" p-id="2321"></path><path d="M688.928107 201.335495c8.56405 9.534144 23.235191 10.31902 32.769334 1.753946l-31.017434-34.524304c-9.533121 8.565073-10.317996 23.235191-1.7519 32.770358z" fill="#CCC2B8" p-id="2322"></path><path d="M785.904789 204.939579m-5.801123 0a5.801123 5.801123 0 1 0 11.602245 0 5.801123 5.801123 0 1 0-11.602245 0Z" fill="#CCC2B8" p-id="2323"></path><path d="M617.740788 210.740702m-8.702196 0a8.702196 8.702196 0 1 0 17.404392 0 8.702196 8.702196 0 1 0-17.404392 0Z" fill="#CCC2B8" p-id="2324"></path><path d="M573.738621 210.740702m-8.702196 0a8.702196 8.702196 0 1 0 17.404392 0 8.702196 8.702196 0 1 0-17.404392 0Z" fill="#CCC2B8" p-id="2325"></path><path d="M527.689842 210.740702m-8.702196 0a8.702196 8.702196 0 1 0 17.404392 0 8.702196 8.702196 0 1 0-17.404392 0Z" fill="#CCC2B8" p-id="2326"></path><path d="M60.03891 626.439402l98.237395-141.216255 90.050945 141.216255zM693.465446 526.155395l113.586988-159.635767 201.591322 258.896468-216.937845 1.023306z" fill="#DDE3ED" p-id="2327"></path><path d="M742.584144 575.274092l65.491597-208.754464-122.796744 171.403788" fill="#C3CEE0" p-id="2328"></path><path d="M543.039435 625.416096l129.959887-143.262868 134.053112 143.262868z" fill="#D6DCE5" p-id="2329"></path><path d="M18.083355 625.416096l142.239562-140.192949-44.002166 140.192949z" fill="#C3CEE0" p-id="2330"></path><path d="M536.392038 624.39279l133.537366-140.192949-52.188616 140.192949z" fill="#BFC9D8" p-id="2331"></path><path d="M421.653831 438.239066c0-13.380752-12.985756-24.227798-29.007661-24.227798-16.019859 0-29.007661 10.847046-29.007661 24.227798v351.842347c0 13.380752 12.986779 24.228821 29.007661 24.228821s29.007661-10.848069 29.007661-24.228821V438.239066z" fill="#979A9E" p-id="2332"></path><path d="M418.734338 666.672732s74.04132 6.939039 78.262458-6.509251c0 0 10.232039-110.09956 0-144.829549-6.392594-21.698185-36.722366-29.293163-42.310641 2.154059-4.457522 25.089421-0.964978 96.297206-1.77953 104.434538-0.813528 8.136308-34.17331 5.694699-34.17331 5.694699" fill="#A0A2A5" p-id="2333"></path><path d="M366.073978 752.043075s-74.042343 6.939039-78.263482-6.508228c-8.363482-93.221148-1.489934-139.565662 0-144.831596 6.779404-23.979134 27.437909-35.941584 42.309619-4.353144 11.813047 25.094538 0.966001 102.806457 1.779529 110.942764 0.813528 8.136308 34.174334 5.694699 34.174334 5.694699" fill="#858789" p-id="2334"></path></svg>